<?xml version="1.0" standalone="no"?>
<!DOCTYPE svg PUBLIC "-//W3C//DTD SVG 20010904//EN"
 "http://www.w3.org/TR/2001/REC-SVG-20010904/DTD/svg10.dtd">
<svg version="1.0" xmlns="http://www.w3.org/2000/svg"
 width="1920.000000pt" height="1080.000000pt" viewBox="0 0 1920.000000 1080.000000"
 preserveAspectRatio="xMidYMid meet">

<g transform="translate(0.000000,1080.000000) scale(0.100000,-0.100000)"
fill="#000000" stroke="none">
<path d="M0 5400 l0 -5400 9600 0 9600 0 0 5400 0 5400 -9600 0 -9600 0 0
-5400z m4205 5330 c10 -16 -5 -50 -21 -50 -20 0 -29 27 -14 45 14 17 26 19 35
5z m-1737 -778 c2 -22 -2 -34 -12 -38 -34 -13 -61 37 -34 64 21 21 43 9 46
-26z m3072 -1092 c0 -5 -4 -10 -9 -10 -6 0 -13 5 -16 10 -3 6 1 10 9 10 9 0
16 -4 16 -10z m9215 -741 c-4 -5 -13 -9 -22 -9 -13 0 -13 3 -3 15 13 15 35 11
25 -6z m-10327 -807 c-5 -24 -38 -28 -38 -5 0 12 8 19 21 20 14 1 19 -3 17
-15z m7952 -196 c0 -19 -107 -96 -132 -96 -23 0 -24 27 0 34 9 4 35 22 57 41
42 36 75 45 75 21z m-7332 -156 c9 -15 10 -26 2 -41 -17 -30 -35 -17 -35 24 0
41 14 48 33 17z m7914 -117 c2 -37 -1 -63 -7 -63 -6 0 -9 20 -7 46 2 25 -1 51
-8 59 -6 8 -9 19 -5 25 13 21 23 -5 27 -67z m-251 10 c8 -41 -21 -74 -46 -53
-8 7 -15 21 -15 32 0 11 -4 16 -11 12 -8 -5 -8 -1 0 13 9 18 7 20 -17 16 -24
-3 -24 -2 -7 6 11 6 36 9 55 8 30 -2 35 -6 41 -34z m-7601 17 c0 -5 -4 -10 -9
-10 -6 0 -13 5 -16 10 -3 6 1 10 9 10 9 0 16 -4 16 -10z m7427 4 c-3 -3 -12
-4 -19 -1 -8 3 -5 6 6 6 11 1 17 -2 13 -5z m704 -95 c-3 -4 -16 -10 -28 -14
-28 -8 -31 13 -9 53 8 15 18 36 22 47 6 15 9 8 14 -30 4 -27 5 -53 1 -56z
m-8084 31 c7 -10 10 -26 7 -35 -9 -23 -23 -18 -16 7 4 16 2 20 -10 15 -12 -4
-14 -1 -11 14 7 24 15 24 30 -1z m2275 -95 c9 -9 -38 -139 -51 -143 -15 -5 -9
38 16 106 15 40 23 49 35 37z m8118 -25 c0 -5 -7 -10 -16 -10 -8 0 -12 5 -9
10 3 6 10 10 16 10 5 0 9 -4 9 -10z m-13626 -42 c8 -17 22 -24 49 -26 24 -2
37 -8 37 -17 0 -15 58 -77 103 -110 29 -21 37 -55 13 -55 -21 0 -113 74 -178
143 -56 59 -66 76 -51 90 8 8 13 4 27 -25z m2533 26 c-3 -3 -12 -4 -19 -1 -8
3 -5 6 6 6 11 1 17 -2 13 -5z m1990 -86 c-3 -8 -6 -5 -6 6 -1 11 2 17 5 13 3
-3 4 -12 1 -19z m-4598 -18 c11 -24 11 -24 -3 -6 -9 11 -16 24 -16 30 0 12 5
7 19 -24z m16353 -25 c23 -46 20 -67 -7 -45 -15 12 -45 66 -45 82 0 4 7 8 15
8 8 0 25 -20 37 -45z m-1109 20 c-1 -5 -18 -14 -38 -19 -29 -8 -38 -7 -45 5
-7 10 -3 16 18 20 37 9 67 6 65 -6z m-15333 -45 c0 -10 8 -27 18 -36 16 -17
16 -18 -2 -11 -10 4 -24 3 -31 -3 -7 -6 -19 -8 -28 -4 -12 4 -13 12 -7 34 5
16 11 34 15 39 9 15 35 1 35 -19z m45 -10 c4 -16 10 -30 14 -30 4 0 16 -15 26
-33 20 -37 42 -44 50 -15 6 16 -17 63 -26 54 -2 -2 -4 9 -4 25 0 16 1 29 2 29
1 0 15 -19 31 -42 34 -49 100 -119 185 -196 65 -58 57 -68 -16 -22 -26 17 -52
30 -58 30 -6 0 -7 5 -4 10 3 6 -4 14 -17 19 -18 7 -27 4 -42 -11 -10 -11 -25
-17 -33 -13 -14 5 -14 2 0 -17 9 -13 28 -44 41 -71 23 -43 24 -46 6 -37 -17 9
-20 7 -20 -10 0 -32 -15 -24 -33 19 -17 37 -43 49 -59 27 -4 -6 -16 1 -27 15
-14 17 -19 39 -20 79 0 40 -4 58 -17 67 -10 7 -13 13 -8 13 5 0 14 13 20 28
11 30 2 72 -16 72 -5 0 -10 9 -10 20 0 31 28 23 35 -10z m11165 -316 c0 -105
-4 -184 -9 -184 -5 0 -16 -3 -25 -6 -11 -4 -16 0 -16 12 0 14 -3 15 -12 6 -7
-7 -25 -12 -41 -12 -25 0 -27 3 -21 23 8 26 6 105 -5 177 -7 43 -6 52 9 60 13
7 18 23 18 56 1 52 7 63 24 46 14 -14 52 -16 44 -3 -7 10 14 21 27 14 4 -2 7
-87 7 -189z m245 175 c13 -13 7 -132 -7 -140 -6 -4 -8 -15 -4 -25 4 -11 10
-46 12 -78 3 -33 6 -62 6 -65 3 -15 -22 -59 -37 -65 -30 -11 -83 -7 -88 8 -3
7 -2 31 3 52 4 22 11 98 15 169 8 167 7 165 53 159 20 -3 41 -9 47 -15z m-442
-96 c-5 -100 -6 -90 7 -145 7 -30 21 -55 37 -68 14 -11 22 -20 17 -20 -5 0
-15 -13 -22 -30 -11 -24 -20 -30 -44 -30 -23 0 -29 4 -24 15 3 8 1 15 -5 15
-5 0 -10 24 -10 53 -1 91 -4 127 -12 127 -14 0 -27 -51 -27 -109 0 -52 -2 -59
-22 -65 -34 -9 -48 -7 -48 5 0 5 4 8 9 5 12 -8 6 92 -8 127 -22 56 55 142 103
115 10 -5 20 -8 22 -5 5 4 12 44 13 75 1 6 5 12 10 12 5 0 7 -35 4 -77z
m-10803 -3 c0 -5 -4 -10 -10 -10 -5 0 -10 5 -10 10 0 6 5 10 10 10 6 0 10 -4
10 -10z m284 -105 c3 -8 1 -15 -3 -15 -5 0 -11 7 -15 15 -3 8 -1 15 3 15 5 0
11 -7 15 -15z m46 -35 c0 -5 -4 -10 -10 -10 -5 0 -10 5 -10 10 0 6 5 10 10 10
6 0 10 -4 10 -10z m-75 -10 c3 -5 1 -10 -4 -10 -6 0 -11 5 -11 10 0 6 2 10 4
10 3 0 8 -4 11 -10z m65 -20 c0 -5 -2 -10 -4 -10 -3 0 -8 5 -11 10 -3 6 -1 10
4 10 6 0 11 -4 11 -10z m-308 -41 c-11 -28 -26 -29 -30 -1 -3 17 2 22 17 22
16 0 19 -4 13 -21z m171 -49 c59 -57 73 -66 78 -52 9 24 -1 44 -17 38 -19 -7
-17 1 6 31 14 19 20 21 20 10 0 -10 6 -14 15 -11 10 4 15 0 15 -11 0 -11 -5
-15 -14 -12 -10 4 -13 1 -10 -7 3 -7 0 -24 -5 -39 -9 -22 -7 -31 13 -52 27
-29 41 -68 23 -62 -16 5 -40 -20 -32 -33 3 -6 -1 -7 -10 -4 -11 5 -17 -2 -21
-24 -4 -17 -14 -38 -24 -47 -16 -14 -19 -14 -33 0 -14 14 -16 13 -22 -5 -5
-16 -10 -19 -20 -10 -17 14 -9 39 18 61 20 16 20 16 -3 64 -23 47 -23 48 -4
61 31 22 44 34 44 43 0 12 -57 82 -80 98 -19 13 -27 33 -14 33 3 0 38 -31 77
-70z m-174 -38 c1 -7 -3 -10 -9 -7 -5 3 -10 18 -9 33 0 24 1 25 9 7 5 -11 9
-26 9 -33z m10866 -12 c3 -5 -3 -10 -14 -10 -11 0 -23 5 -26 10 -3 6 3 10 14
10 11 0 23 -4 26 -10z m-6020 -9 c3 -6 -2 -14 -11 -19 -13 -7 -15 -17 -11 -41
7 -34 1 -38 -25 -17 -22 16 -24 46 -4 46 8 0 18 9 21 20 7 21 20 26 30 11z
m55 -56 c0 -8 -4 -15 -10 -15 -5 0 -10 7 -10 15 0 8 5 15 10 15 6 0 10 -7 10
-15z m-10 -65 c0 -5 -4 -10 -9 -10 -6 0 -13 5 -16 10 -3 6 1 10 9 10 9 0 16
-4 16 -10z m-3836 -24 c70 -24 126 -101 95 -130 -9 -8 -10 -8 -4 3 7 11 0 13
-33 9 -32 -5 -39 -3 -35 8 3 8 -1 14 -10 14 -15 0 -27 20 -27 46 0 9 5 12 10
9 6 -3 10 -3 10 0 0 9 -34 42 -50 48 -32 12 7 6 44 -7z m-914 -6 c0 -5 -2 -10
-4 -10 -3 0 -8 5 -11 10 -3 6 -1 10 4 10 6 0 11 -4 11 -10z m367 -13 c18 7 32
-13 26 -38 -4 -12 -9 -15 -17 -8 -6 5 -20 16 -30 23 -14 9 -17 18 -11 32 7 17
9 17 12 2 3 -10 10 -15 20 -11z m4019 -1 c4 -11 17 -13 45 -10 22 3 39 0 39
-5 0 -5 24 -14 53 -20 52 -11 60 -11 127 -13 23 0 42 -8 57 -24 13 -14 34 -24
50 -24 22 0 25 -2 13 -10 -13 -9 -13 -11 0 -20 20 -13 4 -13 -21 0 -13 8 -19
7 -19 0 0 -7 -8 -9 -21 -5 -12 4 -28 8 -35 9 -7 1 -16 4 -18 7 -3 3 -43 4 -88
3 -65 -2 -92 -7 -120 -23 -23 -14 -39 -18 -43 -11 -10 16 -30 12 -56 -11 -13
-11 -25 -16 -27 -10 -6 17 -20 13 -18 -6 1 -12 -7 -17 -29 -17 -20 -1 -29 -6
-27 -15 3 -12 0 -12 -11 -2 -12 9 -19 7 -37 -16 -17 -22 -23 -24 -30 -13 -7
11 -11 8 -21 -13 -12 -26 -39 -38 -39 -17 0 6 -7 10 -16 10 -11 0 -14 -6 -8
-22 6 -22 6 -23 -14 -5 -19 17 -41 9 -29 -11 3 -4 -9 -7 -26 -7 -25 0 -32 -4
-32 -19 0 -14 11 -22 39 -30 41 -12 61 -36 29 -37 -14 0 -13 -2 5 -10 13 -5
20 -13 17 -19 -3 -5 -2 -10 4 -10 16 0 22 36 10 64 -9 20 -9 29 1 41 7 8 15
13 18 11 2 -3 13 -1 24 5 14 7 23 7 33 -1 8 -7 20 -8 26 -4 18 11 59 14 59 4
0 -5 -5 -10 -11 -12 -6 -2 -11 -16 -11 -31 0 -15 -4 -27 -9 -27 -5 0 -9 5 -9
12 0 6 -7 4 -18 -5 -10 -10 -24 -17 -30 -17 -7 0 -12 -7 -12 -15 0 -9 -9 -15
-23 -15 -13 0 -34 -11 -47 -25 -13 -14 -28 -24 -34 -23 -6 0 -24 -4 -39 -10
-39 -17 -41 -16 -54 19 -11 27 -10 29 4 18 13 -11 15 -10 12 6 -3 11 -13 21
-23 23 -21 4 -46 -22 -72 -75 -9 -18 -20 -33 -25 -33 -5 0 -9 -6 -9 -14 0 -8
-4 -16 -9 -18 -18 -7 -59 -117 -70 -188 -14 -91 -20 -112 -30 -105 -5 2 -8 50
-8 105 0 56 4 95 9 88 7 -12 12 -3 9 16 -1 5 6 17 16 28 10 11 16 21 14 22 -2
0 2 19 7 41 6 22 14 52 17 67 3 18 10 25 19 22 9 -4 18 6 26 30 6 19 17 39 25
46 7 6 16 23 20 37 10 41 54 93 72 86 13 -5 15 -1 10 18 -5 20 1 29 33 52 21
15 43 27 48 27 5 0 12 6 15 13 2 7 22 21 43 32 21 11 53 34 71 52 18 18 33 29
33 26 0 -4 10 3 23 15 20 19 29 21 75 13 41 -6 52 -5 52 5 0 18 19 18 26 0z
m-3506 -54 c0 -13 -12 -22 -22 -16 -10 6 -1 24 13 24 5 0 9 -4 9 -8z m4391
-74 c15 10 24 9 44 -4 13 -9 29 -13 35 -9 17 11 32 -5 19 -21 -7 -8 -30 -14
-59 -14 -44 0 -47 -2 -43 -23 4 -18 14 -26 41 -33 42 -10 45 -24 11 -41 -13
-7 -24 -20 -24 -30 0 -13 -8 -18 -29 -18 -20 -1 -30 -6 -32 -18 -1 -11 5 -17
19 -17 20 0 20 0 1 -19 -10 -10 -22 -17 -26 -14 -5 2 -8 0 -8 -6 0 -5 6 -12
13 -14 9 -4 9 -7 -1 -15 -9 -6 -12 -29 -10 -73 3 -59 5 -64 26 -64 12 0 26 -6
31 -14 10 -16 31 -6 31 15 0 8 5 12 11 9 6 -4 8 -13 5 -21 -9 -22 19 -27 52
-10 28 14 32 14 46 0 9 -8 16 -22 16 -30 0 -8 4 -14 9 -14 16 0 11 -89 -6
-106 -12 -12 -18 -12 -23 -3 -14 21 -32 -1 -25 -31 3 -15 2 -31 -4 -34 -6 -4
-8 -13 -5 -20 3 -8 1 -17 -5 -21 -14 -8 -14 -75 -1 -75 6 0 10 -7 10 -15 0 -8
-5 -15 -12 -15 -6 0 -20 -7 -30 -17 -14 -12 -18 -13 -18 -3 0 11 -3 11 -12 2
-17 -17 -45 -15 -52 3 -3 8 -18 15 -33 15 -33 0 -44 7 -60 37 -18 32 -16 63 3
63 13 0 15 7 10 31 -3 17 -1 39 4 49 13 24 -5 66 -30 73 -22 6 -32 51 -35 149
-1 57 2 78 12 82 19 8 17 72 -3 80 -9 3 -14 12 -11 19 5 14 -45 47 -73 47 -11
0 -20 -7 -20 -15 0 -19 -16 -20 -23 -1 -7 17 11 36 35 36 19 0 25 16 7 22 -5
2 -13 24 -16 48 -3 25 -12 53 -21 63 -18 20 -22 19 56 22 35 1 68 7 75 14 6 6
19 11 28 11 9 0 20 8 24 18 6 15 10 13 32 -12 21 -25 28 -28 44 -18z m-4837
19 c-3 -8 5 -13 22 -15 38 -3 44 -10 37 -42 -5 -26 -2 -30 16 -30 15 0 21 -6
21 -21 0 -29 18 -59 35 -59 20 0 19 -17 -1 -28 -19 -11 -83 24 -84 46 0 11
-21 17 -44 13 -18 -4 -25 23 -19 73 5 56 10 76 17 76 3 0 3 -6 0 -13z m10355
-67 c18 0 19 -5 14 -77 -2 -43 -9 -93 -15 -110 -5 -18 -7 -36 -4 -41 10 -17
51 -6 61 16 18 39 28 23 22 -35 -6 -59 -19 -76 -52 -67 -11 4 -24 7 -29 8 -4
0 -15 -20 -22 -46 -8 -27 -19 -48 -24 -48 -6 0 -10 4 -10 8 0 4 -9 8 -20 8
-11 0 -20 -6 -20 -14 0 -19 -86 -55 -112 -46 -36 11 -97 6 -120 -10 -28 -20
-48 -20 -48 -1 0 8 3 15 8 15 4 0 6 17 4 38 -3 38 15 78 24 55 3 -7 20 3 44
27 29 29 40 50 44 79 3 21 13 56 24 78 11 21 22 55 26 75 4 20 10 38 15 40 4
2 15 23 23 48 l14 44 28 -27 c34 -34 36 -34 36 1 0 43 11 46 41 12 15 -16 37
-30 48 -30z m-9459 26 c0 -13 -120 -80 -128 -71 -7 7 9 25 23 25 8 0 28 14 45
30 33 32 60 39 60 16z m194 -46 c18 -45 21 -96 6 -105 -5 -3 -7 -11 -5 -18 3
-7 -2 -21 -10 -31 -12 -16 -17 -17 -30 -6 -11 9 -15 10 -15 0 0 -6 -5 -10 -11
-8 -6 2 -9 7 -7 11 2 5 -5 13 -15 19 -17 9 -17 11 -3 27 9 10 23 44 31 76 24
91 34 97 59 35z m9073 16 c10 -10 -4 -18 -54 -31 -53 -13 -47 -2 -69 -133 -7
-46 -24 -67 -24 -31 0 12 -8 31 -17 41 -10 12 -18 37 -18 62 -1 23 -5 47 -9
54 -4 7 -5 21 -1 31 5 16 15 18 96 16 50 -2 93 -6 96 -9z m406 -33 c4 -2 7
-12 7 -23 0 -18 42 -36 60 -25 6 4 10 -1 10 -9 0 -9 -5 -15 -12 -13 -6 1 -15
-14 -19 -33 -7 -29 -5 -38 12 -52 15 -13 18 -22 11 -35 -5 -10 -7 -24 -5 -31
5 -14 -18 -72 -29 -72 -5 0 -8 4 -8 8 0 4 -13 23 -28 41 l-28 34 -2 -39 c-1
-21 4 -49 10 -61 14 -29 -6 -103 -28 -103 -27 0 -34 46 -23 143 7 51 11 106
11 122 -5 165 -4 166 27 159 14 -4 29 -9 34 -11z m-2051 -15 c17 -17 18 -20 4
-15 -10 4 -22 7 -27 7 -5 0 -9 7 -9 15 0 20 6 19 32 -7z m2092 7 c-4 -8 -10
-15 -15 -15 -5 0 -9 7 -9 15 0 8 7 15 15 15 9 0 12 -6 9 -15z m-10473 -18 c-1
-12 -15 -9 -19 4 -3 6 1 10 8 8 6 -3 11 -8 11 -12z m9152 -7 c10 0 15 -4 12
-10 -3 -5 6 -12 20 -16 23 -6 25 -10 25 -63 0 -31 5 -62 11 -68 15 -15 3 -82
-16 -90 -8 -3 -34 4 -58 16 -24 12 -51 21 -60 21 -9 0 -17 5 -17 10 0 6 8 10
19 10 18 0 18 2 3 35 -9 19 -20 35 -25 35 -4 0 -6 9 -2 19 4 14 -1 25 -19 36
-29 19 -24 45 8 45 17 0 21 -7 23 -36 2 -38 9 -52 19 -41 4 3 2 25 -4 49 -13
49 -8 62 22 54 11 -3 29 -6 39 -6z m-3793 -61 c0 -10 -6 -19 -13 -19 -22 0
-27 11 -16 32 12 22 29 15 29 -13z m4927 -1 c-3 -8 -6 -5 -6 6 -1 11 2 17 5
13 3 -3 4 -12 1 -19z m-6567 -35 c0 -15 -36 -17 -45 -3 -3 6 1 7 9 4 12 -5 16
0 16 17 0 19 2 21 10 9 5 -8 10 -21 10 -27z m30 17 c0 -5 -2 -10 -4 -10 -3 0
-8 5 -11 10 -3 6 -1 10 4 10 6 0 11 -4 11 -10z m6866 -62 c2 -44 -12 -78 -33
-78 -7 0 -13 -11 -13 -24 0 -17 -9 -29 -30 -40 -35 -17 -39 -11 -8 15 20 18
20 20 5 37 -19 20 -23 52 -7 52 6 0 10 7 10 15 0 8 7 15 15 15 13 0 18 18 14
46 -1 13 26 23 35 14 5 -5 11 -29 12 -52z m-10556 -4 c0 -14 -21 -19 -33 -7
-9 9 13 34 24 27 5 -3 9 -12 9 -20z m820 2 c0 -8 -7 -16 -15 -20 -10 -4 -15 1
-15 14 0 11 7 20 15 20 8 0 15 -6 15 -14z m13109 -57 c7 -29 4 -37 -14 -51
-13 -10 -25 -14 -29 -11 -10 10 -7 95 3 89 5 -4 7 4 4 16 -5 21 -4 22 11 7 10
-9 21 -32 25 -50z m-4730 1 c0 -10 -3 -8 -9 5 -12 27 -12 43 0 25 5 -8 9 -22
9 -30z m-9989 20 c0 -5 -7 -10 -15 -10 -8 0 -15 5 -15 10 0 6 7 10 15 10 8 0
15 -4 15 -10z m670 -32 c0 -7 12 -29 26 -50 22 -31 29 -36 38 -24 9 13 18 13
60 2 28 -7 52 -19 54 -26 3 -7 0 -10 -6 -6 -12 7 -23 -19 -16 -39 4 -8 14 -15
25 -15 10 0 22 -6 26 -13 4 -8 21 -13 37 -13 21 1 30 -4 32 -19 5 -30 -16
-126 -33 -154 l-15 -23 -26 26 c-20 18 -31 23 -42 16 -28 -18 -70 -11 -94 15
-13 14 -30 25 -37 25 -8 0 -21 9 -29 20 -8 11 -20 20 -28 20 -7 0 -15 7 -18
15 -4 8 -12 15 -19 15 -8 0 -16 4 -19 9 -9 13 4 41 19 41 7 0 12 12 11 29 -1
16 -4 27 -8 24 -5 -2 -8 3 -8 11 0 8 5 18 11 21 6 4 9 24 8 44 -2 20 0 42 5
49 9 16 46 16 46 0z m145 -18 c0 -15 -52 -36 -63 -25 -8 8 39 46 53 41 6 -1
10 -9 10 -16z m-717 -38 c26 -26 52 -34 58 -18 10 25 70 -13 90 -56 9 -21 29
-50 43 -65 23 -23 23 -25 4 -14 -12 6 -35 11 -51 11 -20 0 -43 14 -80 49 -29
27 -52 54 -52 59 0 5 -11 14 -25 20 -14 6 -25 16 -25 22 0 16 18 12 38 -8z
m11132 -22 c0 -11 -4 -20 -10 -20 -5 0 -10 9 -10 20 0 11 5 20 10 20 6 0 10
-9 10 -20z m-9720 -5 c10 -13 15 -13 21 -3 10 16 21 5 14 -14 -4 -10 -20 -15
-51 -14 -32 1 -43 5 -39 14 3 8 5 18 5 23 0 15 37 10 50 -6z m-570 -22 c0 -14
-15 -28 -32 -31 -21 -3 -23 9 -6 26 13 13 38 16 38 5z m623 -18 c4 -8 3 -16
-1 -19 -4 -3 -9 4 -9 15 -2 23 3 25 10 4z m13046 -37 c1 -23 7 -45 13 -49 7
-4 3 -14 -11 -25 -19 -17 -21 -26 -15 -70 4 -33 2 -54 -5 -58 -6 -4 -11 -20
-11 -35 0 -26 4 -29 38 -34 20 -2 41 0 47 4 5 6 4 9 -3 9 -7 0 -12 9 -12 20 0
11 -6 20 -13 20 -7 0 -13 9 -13 20 0 11 6 20 14 20 7 0 19 6 27 13 7 6 31 27
54 45 23 20 43 46 46 64 5 20 10 27 17 20 6 -6 7 -16 2 -23 -4 -8 -9 -20 -10
-29 -1 -8 -7 -41 -14 -73 -6 -32 -10 -72 -8 -90 3 -30 5 -32 36 -29 30 3 32 1
32 -26 0 -24 -6 -33 -30 -44 -32 -14 -40 -28 -15 -28 18 0 20 -21 4 -37 -15
-15 11 -43 40 -43 21 0 37 32 25 51 -4 7 -1 10 7 7 8 -3 13 -15 12 -27 -3 -23
12 -29 20 -8 3 6 6 2 6 -10 1 -12 6 -25 11 -28 6 -3 10 -13 10 -21 0 -8 -4
-13 -8 -10 -4 2 -9 -14 -10 -37 -1 -23 -4 -65 -7 -94 -4 -47 -3 -52 18 -55 34
-5 35 -45 2 -58 -26 -10 -26 -30 1 -30 8 0 14 -4 14 -10 0 -5 -7 -10 -15 -10
-17 0 -20 -16 -5 -25 6 -3 10 -19 10 -36 0 -22 -5 -29 -20 -29 -24 0 -25 -9
-5 -36 25 -33 19 -71 -15 -89 -16 -8 -40 -15 -54 -15 -15 0 -30 -8 -36 -19
-14 -27 -13 -31 9 -31 28 0 46 -28 46 -74 1 -23 4 -59 8 -81 9 -50 4 -40 -23
53 -11 40 -25 70 -30 67 -6 -4 -10 0 -11 7 0 10 -2 10 -6 1 -7 -18 -43 -16
-48 2 -3 8 -7 22 -10 31 -6 20 -15 14 -20 -13 -1 -10 -9 -16 -16 -14 -8 2 -32
6 -54 9 -22 2 -55 15 -72 29 -23 16 -33 20 -33 10 0 -17 -59 -10 -67 8 -6 17
25 65 43 65 8 0 14 8 14 18 0 30 -13 34 -27 10 l-13 -23 -6 22 c-3 11 -14 23
-25 26 -11 3 -19 14 -19 25 0 12 -4 23 -9 27 -19 11 -23 64 -7 80 11 11 13 22
7 38 -4 12 -6 28 -4 35 3 6 0 12 -6 12 -7 0 -9 17 -6 47 5 51 15 71 15 30 0
-15 5 -27 10 -27 6 0 10 5 10 10 0 6 11 10 25 10 14 0 25 6 25 13 0 6 3 29 6
50 6 32 4 37 -12 37 -13 0 -15 3 -7 8 7 4 23 29 36 55 13 26 26 44 29 41 3 -3
10 9 16 25 6 17 16 31 21 31 6 0 11 6 11 13 0 18 -95 40 -119 27 -21 -11 -73
1 -79 19 -2 7 5 15 16 18 l21 5 -21 28 c-14 20 -18 34 -13 47 7 15 10 11 18
-19 6 -21 14 -38 18 -38 11 0 29 35 29 54 0 22 -18 20 -23 -1 -2 -10 -4 -3 -4
15 0 17 6 37 14 43 7 6 13 24 13 39 0 15 7 33 16 41 9 7 23 30 31 51 8 21 19
38 24 38 5 0 9 6 9 14 0 17 15 24 51 25 23 1 25 -3 28 -41z m-14108 9 c-13
-13 -26 -3 -16 12 3 6 11 8 17 5 6 -4 6 -10 -1 -17z m969 4 c0 -14 -6 -19 -20
-18 -25 2 -25 6 -2 23 22 17 22 17 22 -5z m30 -51 c0 -4 16 -22 35 -41 19 -19
35 -40 35 -46 0 -7 6 -13 14 -13 8 0 17 -4 20 -9 4 -5 -3 -7 -14 -4 -23 6 -26
-6 -7 -26 10 -11 9 -13 -6 -8 -10 4 -20 1 -23 -6 -5 -14 -70 -11 -80 4 -3 5
-18 9 -35 9 -21 0 -29 -5 -29 -17 0 -14 -2 -15 -9 -5 -4 8 -12 14 -17 13 -5 0
-8 18 -6 39 1 23 -2 40 -8 40 -6 0 0 16 12 35 17 25 30 35 50 35 15 0 29 4 33
10 6 10 35 2 35 -10z m-1160 -30 c0 -5 -2 -10 -4 -10 -3 0 -8 5 -11 10 -3 6
-1 10 4 10 6 0 11 -4 11 -10z m10044 -26 c3 -9 6 -33 6 -55 0 -28 -4 -39 -15
-39 -13 0 -20 23 -16 56 1 6 -6 17 -14 24 -22 18 -18 30 9 30 13 0 27 -7 30
-16z m-9393 -36 c0 -8 2 -9 5 -2 3 8 14 8 39 0 29 -9 35 -15 33 -36 -1 -14 4
-35 10 -47 14 -25 1 -39 -26 -27 -9 4 -21 8 -27 9 -44 8 -75 19 -75 28 0 42
38 112 41 75z m2796 -70 c-3 -7 -5 -2 -5 12 0 14 2 19 5 13 2 -7 2 -19 0 -25z
m11046 -13 c6 -34 -5 -61 -21 -51 -7 4 -7 19 0 46 12 46 13 46 21 5z m-4502
-26 c-20 -17 -22 -22 -11 -29 8 -5 11 -12 8 -15 -10 -10 -28 4 -28 22 0 16 28
42 45 42 6 0 -1 -9 -14 -20z m-6441 -9 c0 -5 -5 -10 -11 -10 -5 0 -7 5 -4 10
3 6 8 10 11 10 2 0 4 -4 4 -10z m-9 -61 l-10 -34 4 35 c4 45 4 44 11 38 3 -3
1 -21 -5 -39z m6559 26 c0 -8 -4 -15 -9 -15 -13 0 -22 16 -14 24 11 11 23 6
23 -9z m-4702 -7 c16 -16 15 -28 -1 -28 -7 0 -18 9 -25 20 -10 16 -10 20 1 20
7 0 18 -5 25 -12z m9200 -25 c4 -24 -26 -40 -34 -18 -8 21 3 47 19 43 6 -3 13
-14 15 -25z m-13588 -29 c0 -9 12 -14 34 -14 21 0 36 -6 40 -15 3 -9 0 -15 -9
-15 -8 0 -15 -6 -15 -14 0 -16 -21 -26 -57 -26 l-26 0 26 -20 c14 -11 32 -20
40 -20 20 0 45 -30 26 -31 -78 -6 -89 -4 -89 19 0 12 -5 31 -12 41 -9 15 -9
32 1 76 11 46 15 54 27 44 8 -6 14 -18 14 -25z m3962 -1 c-3 -16 -7 -22 -10
-15 -4 13 4 42 11 42 2 0 2 -12 -1 -27z m-4050 -47 c3 -60 -4 -111 -17 -125
-15 -15 -227 -42 -269 -34 -23 5 -43 35 -38 56 1 4 -9 7 -23 7 -33 0 -32 18 1
26 14 4 29 17 34 30 16 41 49 53 148 56 50 2 92 6 92 10 0 4 6 5 14 2 8 -3 17
-1 20 5 12 19 36 -1 38 -33z m4150 22 c-6 -6 -16 -7 -22 -3 -9 6 -9 9 1 16 17
10 34 0 21 -13z m-1537 -8 c-11 -36 -9 -184 3 -188 7 -2 12 -10 12 -18 0 -8 4
-14 9 -14 7 0 51 -89 51 -104 0 -3 -9 -6 -20 -6 -11 0 -20 4 -20 9 0 6 -13 25
-30 43 -25 27 -30 41 -31 88 -4 129 4 210 19 210 9 0 11 -7 7 -20z m1590 4
c13 -5 7 -10 -22 -20 -21 -8 -41 -14 -45 -14 -16 0 -7 16 15 26 29 15 32 15
52 8z m-157 -24 c-14 -22 -24 -19 -15 5 4 8 11 15 17 15 6 0 6 -7 -2 -20z
m9132 -26 c0 -8 -5 -12 -10 -9 -6 4 -8 11 -5 16 9 14 15 11 15 -7z m-3800 -44
c12 20 40 21 40 2 0 -10 4 -22 8 -29 10 -16 52 -5 52 13 0 8 5 14 10 14 13 0
34 -49 31 -73 -1 -10 3 -25 10 -33 9 -11 9 -18 1 -26 -9 -9 -12 -9 -12 0 0 20
-39 13 -51 -9 -16 -31 3 -87 41 -124 29 -28 39 -55 20 -55 -5 0 -7 -13 -4 -29
6 -26 4 -29 -15 -24 -11 3 -21 13 -21 23 0 29 -21 80 -31 74 -5 -3 -9 2 -9 10
0 9 -7 16 -16 16 -16 0 -73 57 -75 75 -1 5 -3 27 -5 48 -1 21 -8 44 -13 51 -6
7 -8 15 -5 19 3 3 1 22 -6 43 -10 30 -10 38 1 45 10 6 18 0 27 -18 11 -19 16
-22 22 -13z m776 -65 c-23 -23 -32 2 -9 27 15 17 18 18 21 4 2 -9 -3 -23 -12
-31z m-11231 25 c4 -6 -5 -10 -19 -10 -14 0 -26 5 -26 10 0 6 9 10 19 10 11 0
23 -4 26 -10z m2352 -16 c-3 -3 -12 -4 -19 -1 -8 3 -5 6 6 6 11 1 17 -2 13 -5z
m8571 -24 c2 -13 11 -30 20 -36 16 -12 16 -14 0 -31 -16 -15 -18 -15 -18 -1 0
8 -7 21 -15 28 -18 15 -21 74 -2 68 6 -3 14 -15 15 -28z m3347 -10 c17 -7 14
-9 -13 -9 -20 -1 -31 3 -27 9 7 12 13 12 40 0z m-3406 -16 c19 12 12 -40 -8
-58 -17 -16 -19 -15 -24 20 -7 40 1 64 13 44 4 -7 13 -9 19 -6z m131 -48 c0
-25 -5 -48 -11 -52 -6 -3 -9 -14 -6 -23 5 -20 -19 -58 -30 -47 -4 4 -8 30 -8
58 0 36 5 54 18 63 9 7 17 20 17 29 0 9 5 16 10 16 6 0 10 -20 10 -44z
m-10162 3 c-2 -6 -8 -10 -13 -10 -5 0 -11 4 -13 10 -2 6 4 11 13 11 9 0 15 -5
13 -11z m456 3 c8 -13 -7 -26 -64 -55 -63 -31 -127 -47 -116 -29 4 7 12 12 18
12 6 0 20 7 30 16 21 20 98 61 115 63 6 1 14 -3 17 -7z m8855 -82 c1 -38 -3
-70 -8 -70 -15 0 -22 -30 -11 -49 6 -12 5 -22 -1 -28 -7 -7 -7 -24 1 -53 12
-46 9 -58 -9 -36 -8 10 -24 12 -51 9 -45 -6 -52 7 -20 34 11 10 20 23 20 30 0
7 4 21 9 31 11 21 23 52 27 72 3 16 23 96 30 118 8 26 12 9 13 -58z m2291 40
c0 -5 -4 -10 -10 -10 -5 0 -10 5 -10 10 0 6 5 10 10 10 6 0 10 -4 10 -10z
m-1733 -38 c1 -12 -2 -22 -7 -22 -6 0 -10 4 -10 9 0 5 -3 17 -7 27 -4 11 -2
15 7 12 7 -2 15 -14 17 -26z m369 -33 c15 21 34 28 34 13 0 -10 -59 -77 -62
-71 -25 41 -26 47 -10 70 9 13 16 25 14 27 -1 1 -1 8 0 15 1 6 3 -8 5 -32 4
-42 5 -43 19 -22z m3869 16 c0 -46 -21 -58 -35 -20 -7 18 -7 33 1 46 16 31 34
17 34 -26z m-4076 26 c9 -6 12 -18 7 -36 -8 -32 -13 -29 -26 14 -9 32 -5 37
19 22z m-558 -113 c30 -34 22 -44 -11 -13 -33 32 -35 35 -19 35 7 0 20 -10 30
-22z m-271 -28 c0 -5 -4 -10 -9 -10 -6 0 -13 5 -16 10 -3 6 1 10 9 10 9 0 16
-4 16 -10z m-8592 -43 c2 -11 -9 -19 -38 -27 -22 -6 -45 -8 -50 -5 -19 12 -10
35 18 41 15 3 32 7 37 9 17 6 30 -1 33 -18z m9552 6 c-1 -26 -156 -184 -233
-237 -77 -53 -104 -60 -62 -16 15 16 32 27 37 24 4 -3 8 1 8 10 0 8 6 17 13
19 9 4 9 8 -2 15 -10 8 -11 13 -2 23 6 8 19 25 29 38 16 20 21 22 40 12 37
-20 101 31 102 81 0 19 4 26 14 22 7 -3 16 2 19 10 9 22 37 20 37 -1z m-620
-23 c0 -5 -2 -10 -4 -10 -3 0 -8 5 -11 10 -3 6 -1 10 4 10 6 0 11 -4 11 -10z
m-175 -35 c30 -30 34 -39 24 -56 -12 -24 -32 -20 -38 7 -2 10 -12 30 -22 43
-41 52 -14 56 36 6z m4535 5 c0 -5 -5 -10 -11 -10 -5 0 -7 5 -4 10 3 6 8 10
11 10 2 0 4 -4 4 -10z m-3995 -110 c-19 -37 -23 -37 -35 -4 -8 19 -6 30 7 48
17 23 18 23 31 5 11 -15 10 -24 -3 -49z m1450 60 c-3 -5 -10 -10 -16 -10 -5 0
-9 5 -9 10 0 6 7 10 16 10 8 0 12 -4 9 -10z m-7203 -17 c6 -22 -1 -43 -13 -43
-5 0 -9 14 -9 30 0 33 15 41 22 13z m9683 -63 c3 -5 -1 -10 -9 -10 -8 0 -18 5
-21 10 -3 6 1 10 9 10 8 0 18 -4 21 -10z m-4137 -47 c-2 -10 2 -22 9 -28 7 -6
14 -46 17 -102 6 -99 12 -134 31 -173 24 -49 27 -70 11 -70 -9 0 -16 8 -16 19
0 11 -7 26 -15 35 -8 8 -15 21 -15 29 0 7 -11 24 -25 37 -14 13 -25 29 -25 35
0 12 -6 12 -105 -11 -41 -9 -57 -23 -50 -45 6 -17 1 -19 -29 -17 -24 2 -36 8
-36 18 0 30 157 154 182 145 19 -8 52 30 42 47 -14 21 4 98 22 98 3 0 4 -8 2
-17z m-9825 -46 c-6 -39 -23 -41 -23 -3 0 19 19 50 27 43 1 -2 0 -20 -4 -40z
m3527 8 c5 -14 17 -28 25 -31 8 -4 18 -24 21 -45 4 -22 20 -60 35 -84 16 -25
29 -56 29 -69 0 -26 -30 -59 -45 -48 -27 19 -125 141 -125 156 0 10 -4 14 -10
11 -6 -4 -10 10 -10 34 0 22 5 41 13 44 9 3 9 7 0 19 -16 19 1 38 34 38 16 0
27 -8 33 -25z m380 12 c0 -21 -22 -37 -52 -37 -35 0 -37 17 -3 26 14 3 25 10
25 15 0 5 7 9 15 9 8 0 15 -6 15 -13z m6284 -2 c3 -10 -1 -15 -14 -15 -20 0
-33 13 -23 24 11 11 31 6 37 -9z m56 6 c0 -6 -4 -13 -10 -16 -5 -3 -10 1 -10
9 0 9 5 16 10 16 6 0 10 -4 10 -9z m-11705 -60 c3 -5 1 -12 -5 -16 -5 -3 -10
1 -10 9 0 18 6 21 15 7z m11179 -13 c-10 -24 -54 -49 -82 -46 -25 3 -24 5 23
29 59 31 66 33 59 17z m-10700 -43 c27 -20 42 -19 25 2 -13 15 -11 16 16 9 17
-5 56 -10 89 -12 32 -3 82 -12 110 -20 28 -9 55 -17 60 -18 5 -1 -29 -8 -75
-15 -67 -11 -94 -11 -125 -2 -58 18 -134 53 -134 63 0 12 12 9 34 -7z m4826 5
c0 -5 7 -10 16 -10 11 0 15 -6 11 -20 -3 -12 0 -20 8 -20 17 0 66 -50 59 -61
-3 -5 -1 -24 4 -42 l9 -33 -43 0 c-24 1 -44 4 -44 8 0 5 -9 17 -20 28 -17 17
-50 116 -50 149 0 6 11 11 25 11 14 0 25 -4 25 -10z m-4342 -50 c13 0 13 -2
-3 -14 -18 -13 -17 -14 13 -20 30 -7 92 -65 92 -87 0 -6 4 -8 8 -5 4 2 28 -33
52 -80 24 -46 49 -84 55 -84 6 0 20 9 31 21 53 57 68 69 85 69 11 0 19 -5 19
-10 0 -6 3 -10 8 -9 32 5 56 -20 104 -104 20 -36 36 -47 56 -39 10 3 13 1 8
-6 -5 -8 5 -11 34 -8 39 4 41 3 39 -22 -2 -15 -16 -41 -31 -57 -15 -17 -29
-40 -31 -53 -2 -12 -9 -28 -15 -34 -7 -7 -12 -17 -12 -23 0 -7 -11 -18 -25
-25 -28 -15 -32 -41 -10 -60 19 -16 19 -34 0 -27 -8 4 -17 2 -20 -3 -13 -21
-195 9 -195 33 0 17 -63 68 -77 62 -23 -8 -175 43 -167 57 7 11 -4 10 -26 -2
-26 -14 -108 9 -193 54 -37 20 -73 36 -81 36 -7 0 -19 7 -26 15 -11 13 -8 14
19 9 20 -4 31 -3 31 5 0 6 7 11 16 11 15 0 44 23 44 34 0 3 -5 6 -12 6 -6 0
-25 10 -42 23 -17 12 -51 32 -76 45 -25 12 -56 33 -69 47 -13 14 -30 24 -36
21 -8 -3 -15 8 -19 27 -6 28 -8 30 -17 14 -8 -14 -14 -16 -25 -6 -12 10 -12
13 2 24 10 7 14 17 10 24 -6 9 -11 9 -24 -1 -14 -11 -15 -10 -9 7 7 19 6 19
-7 2 -8 -10 -16 -15 -19 -10 -8 12 29 53 47 53 14 0 22 -14 14 -23 -2 -1 4
-10 12 -19 18 -19 32 -14 23 9 -4 10 -2 14 5 9 6 -3 13 -2 17 4 10 17 -8 36
-35 37 -47 0 -60 3 -60 12 0 14 55 30 70 21 7 -5 19 -6 27 -3 7 3 24 -2 38
-11 14 -9 25 -12 25 -6 0 5 22 10 49 10 28 0 53 5 56 10 8 13 62 13 67 0 2 -6
19 -11 38 -12 59 -1 80 -8 80 -23 0 -25 17 -17 26 13 9 32 11 40 14 67 1 11 4
15 7 8 2 -7 12 -13 21 -13z m-131 -16 c-3 -3 -12 -4 -19 -1 -8 3 -5 6 6 6 11
1 17 -2 13 -5z m48 -4 c3 -5 2 -10 -4 -10 -5 0 -13 5 -16 10 -3 6 -2 10 4 10
5 0 13 -4 16 -10z m10129 -37 c6 -18 4 -48 -9 -118 -8 -43 -24 -80 -25 -57 0
8 -9 25 -19 38 -17 21 -20 22 -25 7 -6 -14 -9 -13 -21 10 -10 20 -11 34 -3 59
6 18 12 39 14 46 2 6 15 12 29 12 14 0 25 5 25 10 0 17 28 11 34 -7z m-10587
-9 c-3 -3 -12 -4 -19 -1 -8 3 -5 6 6 6 11 1 17 -2 13 -5z m11137 -69 c-31 -27
-44 -31 -44 -15 0 6 6 10 14 10 7 0 19 7 26 15 7 8 17 15 23 15 5 0 -3 -11
-19 -25z m4159 0 c-3 -9 -8 -14 -10 -11 -3 3 -2 9 2 15 9 16 15 13 8 -4z
m-2235 -74 c3 -8 -1 -12 -9 -9 -7 2 -15 10 -17 17 -3 8 1 12 9 9 7 -2 15 -10
17 -17z m-1948 -30 c0 -5 -7 -12 -16 -15 -21 -8 -65 4 -58 15 7 12 74 12 74 0z
m-6585 -51 c9 -16 13 -30 11 -30 -3 0 -12 14 -21 30 -9 17 -13 30 -11 30 3 0
12 -13 21 -30z m10775 21 c0 -6 -4 -13 -10 -16 -5 -3 -10 1 -10 9 0 9 5 16 10
16 6 0 10 -4 10 -9z m-14265 -19 c-3 -3 -11 0 -18 7 -9 10 -8 11 6 5 10 -3 15
-9 12 -12z m85 -52 c0 -5 -2 -10 -4 -10 -3 0 -8 5 -11 10 -3 6 -1 10 4 10 6 0
11 -4 11 -10z m44 -19 c4 -5 -3 -7 -14 -4 -23 6 -26 13 -6 13 8 0 17 -4 20 -9z
m9369 -8 c-7 -2 -19 -2 -25 0 -7 3 -2 5 12 5 14 0 19 -2 13 -5z m-10260 -120
c-7 -2 -19 -2 -25 0 -7 3 -2 5 12 5 14 0 19 -2 13 -5z m4267 -3 c0 -5 -2 -10
-4 -10 -3 0 -8 5 -11 10 -3 6 -1 10 4 10 6 0 11 -4 11 -10z m100 -58 c8 -2 23
-3 33 -3 10 0 17 -8 17 -20 0 -15 -7 -19 -38 -19 -29 0 -44 7 -63 28 l-24 27
25 -21 c14 -12 34 -21 44 -21 20 0 20 0 0 13 -10 7 -28 20 -39 29 -19 15 -19
16 5 4 14 -7 32 -15 40 -17z m-3550 -33 c0 -4 -9 -13 -20 -19 -21 -11 -25 -4
-14 24 6 15 34 11 34 -5z m-350 -29 c0 -5 -2 -10 -4 -10 -3 0 -8 5 -11 10 -3
6 -1 10 4 10 6 0 11 -4 11 -10z m14441 -100 c-2 -30 -5 -59 -8 -63 -8 -13 -73
56 -73 79 0 29 21 45 55 42 30 -3 30 -3 26 -58z m-10311 -10 c0 -5 -9 -14 -20
-20 -22 -12 -23 -10 -14 14 7 17 34 22 34 6z m10368 -257 c-4 -22 -22 -20 -26
1 -2 10 3 16 13 16 10 0 15 -7 13 -17z m-4758 -383 c0 -15 -7 -20 -24 -20 -14
0 -28 5 -31 10 -10 16 4 30 31 30 17 0 24 -5 24 -20z m-7800 -66 c0 -8 -7 -14
-15 -14 -15 0 -21 21 -9 33 10 9 24 -2 24 -19z m8095 -90 c14 -15 25 -30 25
-34 0 -13 -24 -27 -57 -33 -31 -6 -33 -5 -33 24 0 34 16 69 31 69 5 0 21 -12
34 -26z m4096 -237 c-13 -13 -26 -3 -16 12 3 6 11 8 17 5 6 -4 6 -10 -1 -17z
m37 -109 c-6 -18 -28 -21 -28 -4 0 9 7 16 16 16 9 0 14 -5 12 -12z m-14318
-558 c0 -5 -5 -10 -11 -10 -5 0 -7 5 -4 10 3 6 8 10 11 10 2 0 4 -4 4 -10z
m-340 -1069 c0 -13 -29 -35 -37 -28 -7 8 15 37 28 37 5 0 9 -4 9 -9z m1153
-241 c3 -11 1 -20 -4 -20 -5 0 -9 9 -9 20 0 11 2 20 4 20 2 0 6 -9 9 -20z"/>
<path d="M12903 6303 c9 -2 23 -2 30 0 6 3 -1 5 -18 5 -16 0 -22 -2 -12 -5z"/>
<path d="M12680 6196 c0 -9 5 -16 10 -16 6 0 10 4 10 9 0 6 -4 13 -10 16 -5 3
-10 -1 -10 -9z"/>
<path d="M6270 5450 c-8 -5 -23 -7 -32 -4 -11 3 -16 0 -14 -13 3 -23 44 -29
69 -10 16 11 17 15 5 24 -9 8 -19 9 -28 3z"/>
<path d="M6120 5375 c0 -8 5 -15 10 -15 6 0 10 7 10 15 0 8 -4 15 -10 15 -5 0
-10 -7 -10 -15z"/>
<path d="M7290 5429 c0 -11 5 -17 10 -14 6 3 10 13 10 21 0 8 -4 14 -10 14 -5
0 -10 -9 -10 -21z"/>
<path d="M7400 5180 c0 -5 5 -10 10 -10 6 0 10 5 10 10 0 6 -4 10 -10 10 -5 0
-10 -4 -10 -10z"/>
<path d="M12848 5373 c7 -3 16 -2 19 1 4 3 -2 6 -13 5 -11 0 -14 -3 -6 -6z"/>
<path d="M12810 5360 c0 -5 7 -10 16 -10 8 0 12 5 9 10 -3 6 -10 10 -16 10 -5
0 -9 -4 -9 -10z"/>
<path d="M12775 5340 c-3 -5 1 -10 9 -10 9 0 16 5 16 10 0 6 -4 10 -9 10 -6 0
-13 -4 -16 -10z"/>
<path d="M2827 5104 c-4 -4 -7 -14 -7 -23 0 -11 3 -12 11 -4 6 6 10 16 7 23
-2 6 -7 8 -11 4z"/>
<path d="M16746 4671 c-3 -5 -16 -7 -27 -4 -19 5 -21 3 -15 -20 6 -27 -8 -38
-18 -14 -3 9 -9 7 -19 -6 -8 -10 -19 -17 -23 -15 -13 4 -74 -23 -74 -33 0 -5
9 -9 21 -9 23 0 61 -18 71 -34 4 -6 11 -7 15 -2 4 5 2 11 -4 13 -7 3 -13 10
-13 17 0 14 28 15 48 2 17 -10 52 2 52 19 0 7 -7 15 -15 19 -23 9 -18 26 8 23
17 -2 22 3 22 22 0 25 -19 39 -29 22z"/>
<path d="M16530 4580 c0 -5 7 -10 15 -10 8 0 15 5 15 10 0 6 -7 10 -15 10 -8
0 -15 -4 -15 -10z"/>
<path d="M16730 4510 c20 -13 40 -13 40 0 0 6 -12 10 -27 10 -22 0 -25 -2 -13
-10z"/>
<path d="M16801 4364 c0 -11 3 -14 6 -6 3 7 2 16 -1 19 -3 4 -6 -2 -5 -13z"/>
<path d="M16781 4044 c0 -11 3 -14 6 -6 3 7 2 16 -1 19 -3 4 -6 -2 -5 -13z"/>
<path d="M12615 4667 c-4 -10 -5 -21 -1 -24 10 -10 18 4 13 24 -4 17 -4 17
-12 0z"/>
<path d="M12648 4628 c3 -14 7 -16 18 -7 19 16 17 25 -5 25 -12 0 -17 -6 -13
-18z"/>
<path d="M1952 3803 c3 -17 54 -37 70 -27 5 3 4 12 -3 20 -6 7 -15 12 -19 9
-5 -3 -11 -1 -15 5 -10 17 -37 11 -33 -7z"/>
</g>
</svg>
